<svg data-v-0dd9719b="" version="1.0" xmlns="http://www.w3.org/2000/svg" xmlns:xlink="http://www.w3.org/1999/xlink" width="100%" height="100%" viewBox="0 0 340.000000 250.000000" preserveAspectRatio="xMidYMid meet" color-interpolation-filters="sRGB" style="margin: auto;"> <rect data-v-0dd9719b="" x="0" y="0" width="100%" height="100%" fill="#ffffff" fill-opacity="1" class="background"></rect> <rect data-v-0dd9719b="" x="0" y="0" width="100%" height="100%" fill="url(#watermark)" fill-opacity="1" class="watermarklayer"></rect> <g data-v-0dd9719b="" fill="#04153e" class="icon-text-wrapper icon-svg-group iconsvg" transform="translate(48.78999328613281,95)"><g class="iconsvg-imagesvg" transform="translate(0,0)"><g><rect fill="#04153e" fill-opacity="0" stroke-width="2" x="0" y="0" width="60" height="60" class="image-rect"></rect> <svg x="0" y="0" width="60" height="60" filtersec="colorsb908634733" class="image-svg-svg primary" style="overflow: visible;"><svg fill="#2c86d8" xmlns="http://www.w3.org/2000/svg" xmlns:xlink="http://www.w3.org/1999/xlink" version="1.0" x="0px" y="0px" viewBox="10 10 80 80" enable-background="new 0 0 100 100" xml:space="preserve"><path d="M43.333,53.333l13.334-0.003c13.304,0,24.752-7.815,30.101-19.085c-1.155-2.695-2.624-5.218-4.316-7.569  C79.473,38.151,69.06,46.663,56.667,46.663l-13.334,0.004c-12.451,0-23.753,4.932-32.132,12.91c0.603,2.435,1.416,4.785,2.438,7.021  C20.96,58.474,31.536,53.333,43.333,53.333z"></path><path d="M89.353,43.008C82.109,53.274,70.183,60,56.667,60H43.333c-10.641,0-20.094,5.003-26.197,12.771  c1.309,1.885,2.77,3.655,4.375,5.286c4.827-6.875,12.803-11.39,21.822-11.39h13.334c12.979,0,24.727-5.336,33.193-13.92  C89.922,51.836,90,50.928,90,50C90,47.61,89.753,45.283,89.353,43.008z"></path><path d="M43.333,33.333c-12.061,0-23.277,3.607-32.695,9.756C10.244,45.339,10,47.637,10,50c0,0.573,0.062,1.133,0.088,1.699  C19.212,44.395,30.762,40,43.333,40l13.334-0.003c10.947,0,19.856-8.845,19.986-19.763c-2.041-1.83-4.264-3.457-6.653-4.838v4.598  c0,7.354-5.979,13.336-13.333,13.336L43.333,33.333z"></path><path d="M43.333,26.666l13.334-0.002c3.675,0,6.666-2.992,6.666-6.67v-7.67C59.157,10.846,54.685,10,50,10  c-16.328,0-30.352,9.801-36.565,23.831C22.438,29.283,32.575,26.666,43.333,26.666z"></path><path d="M56.667,73.333H43.333c-6.992,0-13.147,3.613-16.725,9.066C33.19,87.161,41.257,90,50,90  c17.425,0,32.204-11.159,37.688-26.706C78.938,69.587,68.242,73.333,56.667,73.333z"></path></svg></svg> <!----></g></g> <g transform="translate(67,2.7881240844726562)"><g data-gra="path-name" fill-rule="" class="tp-name iconsvg-namesvg" transform="translate(0,0)"><g transform="scale(1)"><g><path d="M7.56-29.71L7.56-33.4Q8.79-33.22 14.06-33.22L14.06-33.22 30.41-33.22Q36.39-33.22 37.62-33.4L37.62-33.4 37.62-29.71Q36.56-30.06 30.59-30.06L30.59-30.06 23.03-30.06Q22.85-28.65 22.5-24.79L22.5-24.79Q22.32-22.32 22.15-21.09L22.15-21.09 32.17-21.09Q40.08-21.09 41.48-21.27L41.48-21.27 41.48-17.58Q40.25-17.93 33.75-17.93L33.75-17.93 27.6-17.93Q27.25-10.72 27.25-3.34L27.25-3.34Q27.07-1.23 32.34-1.41L32.34-1.41Q36.91-0.53 37.44-6.86L37.44-6.86Q37.44-6.86 37.79-6.5L37.79-6.5Q39.38-5.1 41.66-4.39L41.66-4.39Q39.38 2.29 35.86 1.58L35.86 1.58 28.65 1.58Q23.03 1.76 23.73-2.99L23.73-2.99Q23.91-12.3 24.26-17.93L24.26-17.93 21.62-17.93Q18.81-3.87 5.8 2.29L5.8 2.29Q4.39 0.18 2.29-0.88L2.29-0.88Q14.24-3.87 18.11-17.93L18.11-17.93 11.6-17.93Q4.75-17.93 3.52-17.58L3.52-17.58 3.52-21.27Q5.1-21.09 11.6-21.09L11.6-21.09 18.63-21.09Q19.34-26.02 19.34-30.06L19.34-30.06 14.06-30.06Q8.61-30.06 7.56-29.71L7.56-29.71ZM53.44-36.39L53.44-36.39Q55.72-36.04 57.3-35.16L57.3-35.16Q58.54-34.63 57.3-33.93L57.3-33.93Q56.78-33.4 56.6-33.22L56.6-33.22Q56.25-32.7 55.55-31.46L55.55-31.46Q54.67-30.06 54.49-29.71L54.49-29.71 58.01-29.71Q61.35-29.71 62.93-30.06L62.93-30.06 62.93-26.19Q61.52-26.54 57.83-26.54L57.83-26.54 52.91-26.54Q51.33-23.91 50.63-22.68L50.63-22.68Q52.03-22.32 55.72-22.32L55.72-22.32Q60.29-22.32 62.23-22.68L62.23-22.68 62.23-18.98Q60.64-19.34 56.07-19.34L56.07-19.34 56.07-14.24 58.18-14.24Q60.12-14.24 62.23-14.59L62.23-14.59 62.23-10.72Q61.17-11.07 58.01-11.07L58.01-11.07 56.07-11.07 56.07-3.34Q57.13-4.04 59.59-6.33L59.59-6.33Q60.47-7.03 60.82-7.38L60.82-7.38 61.7-3.87Q56.95-0.35 53.44 3.34L53.44 3.34 50.98 0.18Q52.91-1.41 52.73-2.29L52.73-2.29 52.73-11.07Q49.04-11.07 47.64-10.72L47.64-10.72 47.64-14.59Q49.22-14.24 52.73-14.24L52.73-14.24 52.73-19.16Q51.68-19.16 49.92-18.98L49.92-18.98 49.92-21.8Q49.39-20.92 48.34-19.34L48.34-19.34Q47.81-21.45 46.58-23.2L46.58-23.2Q50.98-28.3 53.44-36.39ZM69.96-33.93L69.96-33.93 79.1-33.93Q81.04-33.93 84.2-34.1L84.2-34.1Q84.2-33.57 84.2-32.17L84.2-32.17Q84.02-30.41 84.02-29.71L84.02-29.71 84.02-22.32Q84.02-20.21 84.2-18.28L84.2-18.28Q82.62-18.63 80.16-18.63L80.16-18.63 72.07-18.63Q70.84-16.17 70.31-15.29L70.31-15.29 82.09-15.29Q85.78-15.29 86.48-15.47L86.48-15.47Q86.48-14.59 86.31-13.01L86.31-13.01Q86.31-11.6 86.31-10.9L86.31-10.9Q85.78-0.53 84.55 1.58L84.55 1.58Q83.32 3.34 77.7 3.69L77.7 3.69Q77.17 0.7 75.94-0.53L75.94-0.53Q80.51 0 81.21-0.35L81.21-0.35Q81.91-1.41 82.44-8.44L82.44-8.44Q82.62-10.9 82.79-12.3L82.79-12.3 80.68-12.3Q78.22-3.87 75.06-0.7L75.06-0.7Q72.42 1.93 66.27 4.39L66.27 4.39Q64.69 2.46 63.46 1.76L63.46 1.76Q69.43 0.35 72.77-2.99L72.77-2.99Q75.94-6.5 77.34-12.48L77.34-12.48 74.88-12.48Q72.07-5.8 65.39-1.23L65.39-1.23Q63.98-2.81 62.23-3.52L62.23-3.52Q68.55-6.15 71.54-12.48L71.54-12.48 68.55-12.48Q66.45-9.67 63.63-7.21L63.63-7.21Q62.4-8.61 60.47-9.32L60.47-9.32Q65.57-12.66 68.55-18.63L68.55-18.63Q66.97-18.63 65.57-18.46L65.57-18.46Q65.04-18.28 65.04-18.46L65.04-18.46Q65.21-19.51 65.21-22.15L65.21-22.15 65.21-29.71Q65.21-31.64 64.69-34.28L64.69-34.28Q66.8-33.93 69.96-33.93ZM80.68-27.6L80.68-30.76 68.73-30.76 68.73-27.6 70.31-27.6 80.68-27.6ZM80.68-24.79L77.7-24.79 68.73-24.79 68.73-21.62 80.68-21.62 80.68-24.79ZM100.72-36.21L100.72-36.21Q101.6-36.04 103.01-35.51L103.01-35.51Q105.64-34.98 105.47-34.8L105.47-34.8Q105.47-34.45 104.77-33.93L104.77-33.93Q103.89-33.05 103.18-32.17L103.18-32.17Q104.41-31.11 108.81-27.95L108.81-27.95Q110.39-26.54 110.92-26.19L110.92-26.19 108.11-23.38Q105.82-26.37 101.43-29.71L101.43-29.71Q97.38-23.03 94.04-19.51L94.04-19.51Q92.46-21.09 91.05-21.62L91.05-21.62Q90.7-21.8 90.7-21.97L90.7-21.97Q97.21-27.77 100.72-36.21ZM109.34-30.06L109.34-33.75 114.43-33.57 127.27-33.57 132.19-33.75 132.19-30.06 127.27-30.23 122.52-30.23 121.99-25.31 126.39-25.31Q128.14-25.31 129.73-25.49L129.73-25.49Q130.25-25.49 130.43-25.49L130.43-25.49Q130.43-25.66 130.25-20.92L130.25-20.92 130.25-10.55Q130.25-7.73 130.43-5.45L130.43-5.45 126.39-5.45Q126.56-5.45 126.56-10.72L126.56-10.72 126.56-21.97 114.61-21.97 114.61-10.72Q114.61-8.09 114.79-5.45L114.79-5.45 110.74-5.45Q110.92-7.73 110.92-10.72L110.92-10.72 110.92-20.92Q110.92-25.49 110.74-25.49L110.74-25.49Q110.92-25.49 111.27-25.49L111.27-25.49Q113.03-25.31 115.31-25.31L115.31-25.31 118.3-25.31 118.83-30.23 114.43-30.23 109.34-30.06ZM98.96-24.08L102.66-24.96 104.59-19.69 100.9-18.81Q100.02-22.68 98.96-24.08L98.96-24.08ZM118.3-19.51L118.3-19.51Q123.05-19.51 122.87-19.34L122.87-19.34Q122.87-19.16 122.7-18.98L122.7-18.98Q121.99-17.4 121.99-13.36L121.99-13.36Q122.87-0.18 109.51 4.57L109.51 4.57Q108.11 2.46 106 1.41L106 1.41Q105.64 1.23 105.47 1.05L105.47 1.05Q118.48-0.53 118.48-10.72L118.48-10.72Q118.65-17.93 118.3-19.51ZM92.81-13.54L92.81-17.23 97.03-17.05 104.24-17.05Q106.7-17.05 108.81-17.23L108.81-17.23Q109.69-17.4 109.69-17.23L109.69-17.23Q106.52-9.32 102.83-3.87L102.83-3.87Q103.54-3.16 104.41-1.93L104.41-1.93Q105.47-0.7 106 0L106 0 102.66 2.11Q98.79-3.69 94.22-8.09L94.22-8.09 97.56-10.02Q100.55-6.68 100.9-6.15L100.9-6.15Q103.36-10.9 104.59-13.71L104.59-13.71 97.03-13.71 92.81-13.54ZM121.29-2.64L124.1-5.27Q127.27-3.16 132.54 0.7L132.54 0.7 129.2 3.52Q125.86-0.35 121.29-2.64L121.29-2.64ZM142.38-35.51L142.38-35.51Q143.79-34.98 151.7-34.98L151.7-34.98 163.65-34.98Q171.74-34.98 172.44-35.33L172.44-35.33Q172.44-35.16 172.44-34.45L172.44-34.45Q172.27-31.82 172.27-29L172.27-29 172.27-26.72Q172.27-21.62 172.62-20.57L172.62-20.57Q170.33-21.09 160.84-20.92L160.84-20.92Q160.84-18.98 161.02-17.05L161.02-17.05 166.99-17.05Q166.29-18.28 165.06-19.86L165.06-19.86 169.28-20.21Q170.33-18.63 170.68-17.23L170.68-17.23Q174.73-17.23 176.13-17.58L176.13-17.58 176.13-13.71Q174.9-14.24 167.17-14.24L167.17-14.24 161.37-14.24Q162.07-9.67 164.53-5.45L164.53-5.45Q167.34-8.61 168.93-11.43L168.93-11.43Q169.28-11.07 170.16-10.55L170.16-10.55Q172.79-8.96 172.62-8.96L172.62-8.96Q172.62-8.79 172.27-8.79L172.27-8.79Q171.39-8.61 170.16-7.21L170.16-7.21Q168.93-5.8 166.29-3.16L166.29-3.16Q170.33 0 172.79 0.18L172.79 0.18Q173.5 0.53 174.02-4.22L174.02-4.22Q176.13-2.11 177.71-1.93L177.71-1.93Q176.13 4.22 174.38 4.39L174.38 4.39Q170.16 4.39 163.83-0.88L163.83-0.88Q158.73 2.64 157.32 3.34L157.32 3.34Q156.09 1.23 154.69 0.35L154.69 0.35Q159.08-0.88 161.89-3.16L161.89-3.16Q159.26-7.73 158.2-14.06L158.2-14.06 145.37-14.06Q145.37-11.25 145.37-10.37L145.37-10.37 150.29-10.37Q155.74-10.37 156.27-10.55L156.27-10.55Q155.74-4.57 154.69-1.23L154.69-1.23Q153.63 0.18 147.83 0.7L147.83 0.7Q147.66-1.41 146.6-2.99L146.6-2.99Q150.12-2.46 151-2.99L151-2.99Q152.05-2.99 152.23-7.56L152.23-7.56 145.02-7.56Q143.61-0.7 139.75 4.04L139.75 4.04Q138.52 2.29 136.58 1.41L136.58 1.41Q141.68-1.93 141.86-10.72L141.86-10.72Q141.86-16.17 141.68-17.58L141.68-17.58Q143.44-17.05 150.47-17.05L150.47-17.05 157.68-17.05Q157.68-17.58 157.68-18.81L157.68-18.81Q157.5-20.21 157.5-20.92L157.5-20.92 151.17-20.92Q145.02-20.92 142.21-20.57L142.21-20.57Q142.73-21.8 142.56-27.07L142.56-27.07 142.56-29Q142.56-34.8 142.38-35.51ZM168.57-31.82L146.07-31.82 146.07-29.53 168.57-29.53 168.57-31.82ZM168.57-26.37L146.07-26.37 146.07-23.91 168.57-23.91 168.57-26.37Z" transform="translate(-2.2899999618530273, 36.38999938964844)"></path></g> <!----> <!----> <!----> <!----> <!----> <!----> <!----></g></g> <g data-gra="path-slogan" fill-rule="" class="tp-slogan iconsvg-slogansvg" fill="#04153E" transform="translate(5,47.959999084472656)"><rect x="0" height="1" y="3.2300000190734863" width="36.41000747680664"></rect> <rect height="1" y="3.2300000190734863" width="36.41000747680664" x="129.01000595092773"></rect> <g transform="translate(39.41000747680664,0)"><g transform="scale(1)"><path d="M4.73-5.94L4.69-5.94L3.05 0L2.03 0L0.16-7.15L1.17-7.15L2.54-1.33L2.58-1.33L4.18-7.15L5.23-7.15L6.84-1.33L6.88-1.33L8.20-7.15L9.26-7.15L7.38 0L6.37 0L4.73-5.94ZM14.88-2.66L14.88-7.15L15.86-7.15L15.86-2.54Q15.74 0.04 12.93 0.12L12.93 0.12Q10.31 0.04 10.20-2.38L10.20-2.38L10.20-7.15L11.17-7.15L11.17-2.66Q11.21-0.70 12.97-0.66L12.97-0.66Q14.88-0.70 14.88-2.66L14.88-2.66ZM22.97-7.15L20.55-3.67L23.09 0L21.88 0L19.92-2.93L17.97 0L16.80 0L19.38-3.67L16.95-7.15L18.16-7.15L19.96-4.41L21.80-7.15L22.97-7.15ZM24.14-7.15L25.12-7.15L25.12 0L24.14 0L24.14-7.15ZM29.53-7.15L30.51-7.15L30.51-0.86L34.14-0.86L34.14 0L29.53 0L29.53-7.15ZM35.23-7.15L36.21-7.15L36.21 0L35.23 0L35.23-7.15ZM39.02-7.15L42.62-1.37L42.62-7.15L43.55-7.15L43.55 0L42.46 0L38.83-5.78L38.79-5.78L38.79 0L37.85 0L37.85-7.15L39.02-7.15ZM50.39-3.01L48.20-3.01L48.20-3.83L51.33-3.83L51.33 0L50.70 0L50.47-0.90Q49.65 0.08 48.13 0.12L48.13 0.12Q46.68 0.12 45.90-0.63L45.90-0.63Q44.73-1.72 44.77-3.63L44.77-3.63Q45.04-7.19 48.16-7.34L48.16-7.34Q50.82-7.19 51.21-5L51.21-5L50.27-5Q49.88-6.48 48.13-6.52L48.13-6.52Q45.90-6.37 45.78-3.59L45.78-3.59Q45.78-0.63 48.16-0.63L48.16-0.63Q49.02-0.63 49.65-1.09L49.65-1.09Q50.43-1.72 50.39-3.01L50.39-3.01ZM58.05-5.08L58.05-5.08L57.15-5.08Q57.07-6.45 55.35-6.52L55.35-6.52Q53.75-6.48 53.75-5.27L53.75-5.27Q53.75-4.49 54.61-4.38L54.61-4.38L56.64-3.91Q58.24-3.52 58.24-1.95L58.24-1.95Q58.20 0.04 55.43 0.12L55.43 0.12Q53.91 0.12 53.28-0.51L53.28-0.51Q52.50-1.09 52.54-2.30L52.54-2.30L53.48-2.30Q53.52-0.66 55.43-0.63L55.43-0.63Q57.30-0.66 57.34-1.84L57.34-1.84Q57.50-2.81 55.78-3.13L55.78-3.13L54.30-3.44Q52.77-3.87 52.77-5.16L52.77-5.16Q52.89-7.27 55.27-7.34L55.27-7.34Q57.97-7.34 58.05-5.08ZM60.43-4.22L64.18-4.22L64.18-7.15L65.16-7.15L65.16 0L64.18 0L64.18-3.32L60.43-3.32L60.43 0L59.45 0L59.45-7.15L60.43-7.15L60.43-4.22ZM67.73-0.86L72.03-0.86L72.03 0L66.76 0L66.76-7.15L71.95-7.15L71.95-6.33L67.73-6.33L67.73-4.10L71.64-4.10L71.64-3.24L67.73-3.24L67.73-0.86ZM74.45-7.15L78.05-1.37L78.05-7.15L78.98-7.15L78.98 0L77.89 0L74.26-5.78L74.22-5.78L74.22 0L73.28 0L73.28-7.15L74.45-7.15ZM85.82-3.01L83.63-3.01L83.63-3.83L86.76-3.83L86.76 0L86.13 0L85.90-0.90Q85.08 0.08 83.55 0.12L83.55 0.12Q82.11 0.12 81.33-0.63L81.33-0.63Q80.16-1.72 80.20-3.63L80.20-3.63Q80.47-7.19 83.59-7.34L83.59-7.34Q86.25-7.19 86.64-5L86.64-5L85.70-5Q85.31-6.48 83.55-6.52L83.55-6.52Q81.33-6.37 81.21-3.59L81.21-3.59Q81.21-0.63 83.59-0.63L83.59-0.63Q84.45-0.63 85.08-1.09L85.08-1.09Q85.86-1.72 85.82-3.01L85.82-3.01Z" transform="translate(-0.15625, 7.34375)"></path></g></g></g></g></g><defs v-gra="od"></defs></svg>